
        <svg xmlns="http://www.w3.org/2000/svg" xmlns:xlink="http://www.w3.org/1999/xlink" version="1.1" width="3187.5" height="776.8227744550403" viewBox="0 0 3187.5 776.8227744550403">
			
			<g transform="scale(9.375) translate(10, 10)">
				<defs id="SvgjsDefs1250"/><g id="SvgjsG1251" featureKey="symbolFeature-0" transform="matrix(0.9999644482854537,0,0,0.9999644482854537,0.0003566615139567944,0.001870088847244048)" fill="#000"><path xmlns="http://www.w3.org/2000/svg" d="M81.978,34.831c-0.193,2.585-0.699,5.17-1.53,7.698c2.648,3.388,3.696,6.219,2.66,8.015  c-2.815,4.875-19.92,0.271-38.204-10.286C26.62,29.702,14.08,17.191,16.895,12.315c1.036-1.795,4.01-2.304,8.265-1.705  c1.774-1.984,3.76-3.715,5.903-5.175C15.379-0.545,3.356-1.892,0.589,2.901c-4.202,7.277,14.515,25.949,41.805,41.705  c27.289,15.756,52.818,22.629,57.02,15.352C102.182,55.164,95.002,45.424,81.978,34.831z"/><path xmlns="http://www.w3.org/2000/svg" d="M21.806,20.559c0.696,0.815,1.505,1.691,2.447,2.631c5.199,5.187,12.872,10.82,21.603,15.861  c8.731,5.042,17.446,8.869,24.538,10.778c1.282,0.346,2.442,0.608,3.493,0.802c4.212-5.221,6.735-11.861,6.735-19.091  c0-16.806-13.624-30.43-30.43-30.43C37.259,1.11,26.211,9.18,21.806,20.559z"/><path xmlns="http://www.w3.org/2000/svg" d="M19.765,31.319c0,0.074-0.002,0.147-0.002,0.221c0,16.806,13.624,30.431,30.43,30.431c5.624,0,10.891-1.528,15.411-4.188  c-7.564-3.074-15.675-7.069-23.779-11.749C33.722,41.357,26.208,36.332,19.765,31.319z"/></g><g id="SvgjsG1252" featureKey="nameFeature-0" transform="matrix(0.534245132561856,0,0,0.534245132561856,118.93150973487629,19.43562351655185)" fill="#000"><path d="M2 12.120000000000001 l4.12 -4.12 l15.8 0 l2.8 2.8 l0 -3.2 l1.8 0 l0 10.8 l-1.8 0 l0 -5.12 l-3.68 -3.68 l-9.84 0 l0 28.8 l10.76 0 l3.6 -3.6 l1.24 1.24 l-3.96 3.96 l-16.72 0 l-4.12 -4.12 l0 -23.76 z M53.760000000000005 20.12 l0 15.76 l-4.12 4.12 l-14.72 0 l-4.12 -4.12 l0 -15.76 l4.12 -4.12 l14.72 0 z M40.4 17.6 l0 20.8 l3.76 0 l0 -20.8 l-3.76 0 z M59.96000000000001 40.4 l0 -3.12 l2.72 2.72 l12.6 0 l3.32 -3.32 l0 -4.84 l-13.44 -14.24 l7.64 0 l3.6 3.6 l0 3 l1.8 0 l0 -8.6 l-1.8 0 l0 3.12 l-2.72 -2.72 l-11.8 0 l-3.32 3.32 l0 4.84 l13.44 14.24 l-8.44 0 l-3.6 -3.6 l0 -3 l-1.8 0 l0 8.6 l1.8 0 z M127.60000000000001 38.4 l0 1.6 l-8.88 0 l-3.32 -3.32 l0 -19.08 l-2.8 0 l-2.8 2.8 l0 18 l2.4 0 l0 1.6 l-11.6 0 l0 -22.4 l-2.8 0 l-2.8 2.8 l0 18 l2.4 0 l0 1.6 l-14.8 0 l0 -1.6 l3.2 0 l0 -20.8 l-3.2 0 l0 -1.6 l8.68 0 l2.84 2.8 l2.8 -2.8 l9.16 0 l2.84 2.8 l2.8 -2.8 l8.96 0 l3.72 3.72 l0 18.68 l3.2 0 z M153.76000000000002 20.12 l0 15.76 l-4.12 4.12 l-14.72 0 l-4.12 -4.12 l0 -15.76 l4.12 -4.12 l14.72 0 z M140.4 17.6 l0 20.8 l3.76 0 l0 -20.8 l-3.76 0 z M157.76000000000002 12.120000000000001 l4.12 -4.12 l15.8 0 l2.8 2.8 l0 -3.2 l1.8 0 l0 10.8 l-1.8 0 l0 -5.12 l-3.68 -3.68 l-9.84 0 l0 28.8 l10.76 0 l3.6 -3.6 l1.24 1.24 l-3.96 3.96 l-16.72 0 l-4.12 -4.12 l0 -23.76 z M207.76000000000002 18.92 l-1.24 1.24 l-2.56 -2.56 l-3.4 0 l-2.8 2.8 l0 18 l3.2 0 l0 1.6 l-8.68 0 l-3.72 -3.72 l0 -18.68 l-3.2 0 l0 -1.6 l8.68 0 l2.84 2.8 l2.8 -2.8 l5.16 0 z M238.76000000000002 38.4 l0 1.6 l-8.68 0 l-2.8 -2.84 l-2.84 2.84 l-8.96 0 l-3.72 -3.72 l0 -18.68 l-3.2 0 l0 -1.6 l8.48 0 l3.72 3.72 l0 18.68 l2.8 0 l2.8 -2.8 l0 -19.6 l5.48 0 l3.72 3.72 l0 18.68 l3.2 0 z M270.76000000000005 38.4 l0 1.6 l-9.08 0 l-3.32 -3.32 l0 -19.08 l-2.8 0 l-2.8 2.8 l0 18 l2 0 l0 1.6 l-14.4 0 l0 -1.6 l3.2 0 l0 -20.8 l-3.2 0 l0 -1.6 l8.68 0 l2.84 2.8 l2.8 -2.8 l9.16 0 l3.72 3.72 l0 18.68 l3.2 0 z M286.56000000000006 24 l0 -6.4 l-4.2 0 l0 20.8 l7.6 0 l3.16 -3.16 l1.24 1.24 l-3.52 3.52 l-13.96 0 l-3.72 -3.72 l0 -16.56 l3.72 -3.72 l14.76 0 l2.92 2.92 l0 5.08 l-8 0 z M326.36000000000007 38.4 l0 1.6 l-8.68 0 l-3.72 -3.72 l0 -18.68 l-3.2 0 l-2.6 2.6 l0 18.2 l2.4 0 l0 1.6 l-7.88 0 l-3.72 -3.72 l0 -29.88 l-3.2 0 l0 -1.6 l8.68 0 l3.72 3.72 l0 9.2 l1.72 -1.72 l9.56 0 l3.72 3.72 l0 18.68 l3.2 0 z M332.4800000000001 40 l15.56 0 l3.72 -3.72 l-1.24 -1.24 l-3.36 3.36 l-9.2 0 l0 -8.4 l9.88 0 l3.72 -3.72 l0 -6.56 l-3.72 -3.72 l-15.36 0 l-3.72 3.72 l0 16.56 z M337.96000000000004 17.6 l4.4 0 l0 10.8 l-4.4 0 l0 -10.8 z M376.36 18.92 l-1.24 1.24 l-2.56 -2.56 l-3.4 0 l-2.8 2.8 l0 18 l3.2 0 l0 1.6 l-8.68 0 l-3.72 -3.72 l0 -18.68 l-3.2 0 l0 -1.6 l8.68 0 l2.84 2.8 l2.8 -2.8 l5.16 0 z"/></g>
			</g>
		</svg>
	